<?xml version="1.0" standalone="no"?>
<!DOCTYPE svg PUBLIC "-//W3C//DTD SVG 20010904//EN"
 "http://www.w3.org/TR/2001/REC-SVG-20010904/DTD/svg10.dtd">
<svg version="1.0" xmlns="http://www.w3.org/2000/svg"
 width="80.000000pt" height="96.000000pt" viewBox="0 0 80.000000 96.000000"
 preserveAspectRatio="xMidYMid meet">

<g transform="translate(0.000000,96.000000) scale(0.100000,-0.100000)"
fill="#000000" stroke="none">
<path d="M600 952 c-8 -3 -20 -12 -26 -21 -10 -13 -14 -13 -28 -2 -14 12 -19
11 -35 -3 -12 -11 -27 -15 -43 -11 -18 5 -27 2 -31 -10 -5 -11 -14 -14 -32 -9
-14 3 -31 1 -39 -5 -8 -7 -25 -9 -39 -6 -17 5 -26 2 -31 -10 -4 -12 -13 -15
-35 -10 -17 4 -32 2 -36 -5 -4 -7 -19 -9 -36 -5 -22 5 -31 2 -35 -10 -5 -12
-14 -14 -34 -10 -18 4 -31 1 -40 -10 -9 -11 -16 -12 -26 -4 -14 11 -54 3 -54
-11 0 -5 7 -16 16 -24 9 -10 13 -24 9 -37 -4 -13 -1 -27 10 -40 14 -14 15 -22
6 -33 -9 -11 -8 -17 4 -30 12 -11 15 -25 10 -45 -4 -21 -2 -30 9 -34 11 -5 14
-14 10 -37 -5 -20 -3 -30 6 -30 8 0 11 -9 7 -29 -4 -19 -1 -33 8 -41 9 -8 12
-22 8 -41 -4 -20 -1 -29 7 -29 8 0 11 -9 7 -29 -4 -20 -1 -33 9 -42 10 -8 13
-21 9 -36 -3 -15 0 -30 10 -39 12 -13 13 -19 4 -30 -9 -11 -8 -19 6 -33 11
-13 14 -27 10 -41 -4 -13 -1 -28 9 -38 9 -11 12 -23 6 -31 -4 -8 -6 -20 -3
-28 7 -18 42 -17 50 3 4 11 13 13 33 9 18 -4 31 -1 40 10 9 11 16 12 25 5 14
-12 45 -3 45 12 0 5 12 7 28 3 20 -4 33 -1 41 9 10 11 18 13 31 6 14 -7 23 -6
34 5 10 10 24 13 41 9 19 -5 30 -1 39 12 11 15 17 16 29 6 12 -10 18 -10 30 3
10 10 25 13 45 9 21 -4 31 -2 35 9 4 12 15 14 41 10 31 -5 36 -3 36 15 0 11
-7 22 -15 26 -11 4 -14 13 -9 31 3 14 1 31 -5 39 -7 8 -9 25 -5 40 4 19 2 28
-10 32 -13 5 -15 14 -11 34 4 16 1 31 -5 35 -7 4 -9 19 -5 36 5 22 2 31 -10
35 -12 5 -14 14 -10 34 4 18 1 31 -10 40 -11 9 -12 16 -5 25 12 14 3 45 -12
45 -5 0 -7 12 -3 28 4 20 1 33 -9 41 -11 10 -13 18 -6 31 7 14 6 23 -6 34 -9
10 -13 24 -9 37 4 13 1 27 -10 40 -14 14 -15 22 -6 33 9 11 8 17 -4 29 -10 10
-13 25 -9 45 6 32 -2 43 -26 34z m-73 -252 c39 -23 59 -60 67 -120 11 -86 -33
-145 -124 -170 -36 -10 -37 -12 -31 -43 6 -27 11 -32 34 -30 23 1 28 -4 37
-39 6 -22 9 -42 7 -44 -8 -8 -191 -45 -202 -40 -7 2 -15 19 -19 38 -5 25 -2
36 10 45 16 12 15 22 -12 150 -26 123 -31 138 -51 141 -16 2 -23 12 -28 43 -4
22 -5 42 -3 43 1 1 46 12 98 23 124 27 177 28 217 3z"/>
<path d="M390 604 c0 -8 5 -35 11 -60 12 -47 35 -58 59 -29 14 17 7 69 -11 92
-16 18 -59 17 -59 -3z"/>
</g>
</svg>
